<svg width="1500" height="500" viewBox="0 0 1500 500" fill="none" xmlns="http://www.w3.org/2000/svg">
  <defs>
    <radialGradient id="b" cx="42%" cy="38%" r="70%">
      <stop offset="0%" stop-color="#2d1b55"/>
      <stop offset="45%" stop-color="#130a28"/>
      <stop offset="100%" stop-color="#06030f"/>
    </radialGradient>
    <radialGradient id="light" cx="25%" cy="20%" r="55%">
      <stop offset="0%" stop-color="#7c6af7" stop-opacity="0.38"/>
      <stop offset="40%" stop-color="#a78bfa" stop-opacity="0.12"/>
      <stop offset="100%" stop-color="#7c6af7" stop-opacity="0"/>
    </radialGradient>
    <radialGradient id="rim" cx="75%" cy="78%" r="45%">
      <stop offset="0%" stop-color="#4c1d95" stop-opacity="0.4"/>
      <stop offset="100%" stop-color="#4c1d95" stop-opacity="0"/>
    </radialGradient>
  </defs>
  <rect width="1500" height="500" fill="#0a0a0f"/>
  <line x1="0" y1="125" x2="1500" y2="125" stroke="#1e1e2e" stroke-width="0.5"/>
  <line x1="0" y1="250" x2="1500" y2="250" stroke="#1e1e2e" stroke-width="0.5"/>
  <line x1="0" y1="375" x2="1500" y2="375" stroke="#1e1e2e" stroke-width="0.5"/>
  <line x1="375" y1="0" x2="375" y2="500" stroke="#1e1e2e" stroke-width="0.5"/>
  <line x1="750" y1="0" x2="750" y2="500" stroke="#1e1e2e" stroke-width="0.5"/>
  <line x1="1125" y1="0" x2="1125" y2="500" stroke="#1e1e2e" stroke-width="0.5"/>

  <!-- Orb grande direita: escala 4.0 centrado em 1220,250 -->
  <!-- viewBox 100x100, scale 4: 100*4=400px, centro no meio = translate(1220-50*4, 250-50*4) = translate(1020, 50) -->
  <g transform="translate(1020, 50) scale(4.0)">
    <rect width="100" height="100" rx="22" fill="none"/>
    <ellipse cx="50" cy="84" rx="19" ry="4" fill="#2a1560" opacity="0.5"/>
    <rect x="37" y="77" width="26" height="8" rx="4" fill="#130a28"/>
    <circle cx="50" cy="44" r="33" fill="url(#b)"/>
    <circle cx="50" cy="44" r="33" fill="url(#light)"/>
    <circle cx="50" cy="44" r="33" fill="url(#rim)"/>
    <path d="M44,36 L46.2,43.2 L53.5,45.5 L46.2,47.8 L44,55 L41.8,47.8 L34.5,45.5 L41.8,43.2 Z" fill="#d97706"/>
    <path d="M44,36 L46.2,43.2 L53.5,45.5 L46.2,47.8 L44,55 L41.8,47.8 L34.5,45.5 L41.8,43.2 Z" fill="#fbbf24" opacity="0.55"/>
    <path d="M63,26 L64.5,30.8 L69.3,32.3 L64.5,33.8 L63,38.6 L61.5,33.8 L56.7,32.3 L61.5,30.8 Z" fill="#d97706"/>
    <path d="M63,26 L64.5,30.8 L69.3,32.3 L64.5,33.8 L63,38.6 L61.5,33.8 L56.7,32.3 L61.5,30.8 Z" fill="#fbbf24" opacity="0.55"/>
    <path d="M63,55 L64,58 L67,59 L64,60 L63,63 L62,60 L59,59 L62,58 Z" fill="#d97706"/>
    <path d="M63,55 L64,58 L67,59 L64,60 L63,63 L62,60 L59,59 L62,58 Z" fill="#fbbf24" opacity="0.55"/>
  </g>

  <!-- Ícone pequeno esquerda: escala 1.1 -->
  <g transform="translate(100, 158) scale(1.1)">
    <rect width="100" height="100" rx="22" fill="#1a0d35"/>
    <rect width="100" height="100" rx="22" fill="none" stroke="#3d2070" stroke-width="2"/>
    <ellipse cx="50" cy="84" rx="19" ry="4" fill="#2a1560" opacity="0.5"/>
    <rect x="37" y="77" width="26" height="8" rx="4" fill="#130a28"/>
    <circle cx="50" cy="44" r="33" fill="url(#b)"/>
    <circle cx="50" cy="44" r="33" fill="url(#light)"/>
    <circle cx="50" cy="44" r="33" fill="url(#rim)"/>
    <path d="M44,36 L46.2,43.2 L53.5,45.5 L46.2,47.8 L44,55 L41.8,47.8 L34.5,45.5 L41.8,43.2 Z" fill="#d97706"/>
    <path d="M44,36 L46.2,43.2 L53.5,45.5 L46.2,47.8 L44,55 L41.8,47.8 L34.5,45.5 L41.8,43.2 Z" fill="#fbbf24" opacity="0.55"/>
    <path d="M63,26 L64.5,30.8 L69.3,32.3 L64.5,33.8 L63,38.6 L61.5,33.8 L56.7,32.3 L61.5,30.8 Z" fill="#d97706"/>
    <path d="M63,26 L64.5,30.8 L69.3,32.3 L64.5,33.8 L63,38.6 L61.5,33.8 L56.7,32.3 L61.5,30.8 Z" fill="#fbbf24" opacity="0.55"/>
    <path d="M63,55 L64,58 L67,59 L64,60 L63,63 L62,60 L59,59 L62,58 Z" fill="#d97706"/>
    <path d="M63,55 L64,58 L67,59 L64,60 L63,63 L62,60 L59,59 L62,58 Z" fill="#fbbf24" opacity="0.55"/>
  </g>

  <!-- Wordmark -->
  <text x="238" y="237" font-family="'Syne','Arial Black',sans-serif" font-weight="800" font-size="92" letter-spacing="-2">
    <tspan fill="#e8e8f0">pred</tspan><tspan fill="#7c6af7">lab</tspan>
  </text>
  <text x="240" y="290" font-family="'DM Mono','Courier New',monospace" font-size="18" letter-spacing="3" fill="#555570">TRACK · COMPARE · RANK</text>
  <text x="240" y="334" font-family="'DM Mono','Courier New',monospace" font-size="16" letter-spacing="1" fill="#3d3580">predlab.app</text>
</svg>
