<svg width="1500" height="500" viewBox="0 0 1500 500" fill="none" xmlns="http://www.w3.org/2000/svg">
  <defs>
    <radialGradient id="bb1" cx="42%" cy="38%" r="70%">
      <stop offset="0%" stop-color="#2d1b55"/>
      <stop offset="45%" stop-color="#130a28"/>
      <stop offset="100%" stop-color="#06030f"/>
    </radialGradient>
    <radialGradient id="blight1" cx="28%" cy="22%" r="55%">
      <stop offset="0%" stop-color="#7c6af7" stop-opacity="0.38"/>
      <stop offset="40%" stop-color="#a78bfa" stop-opacity="0.12"/>
      <stop offset="100%" stop-color="#7c6af7" stop-opacity="0"/>
    </radialGradient>
    <radialGradient id="brim1" cx="75%" cy="78%" r="45%">
      <stop offset="0%" stop-color="#4c1d95" stop-opacity="0.4"/>
      <stop offset="100%" stop-color="#4c1d95" stop-opacity="0"/>
    </radialGradient>
    <radialGradient id="ib1" cx="42%" cy="38%" r="70%">
      <stop offset="0%" stop-color="#2d1b55"/>
      <stop offset="45%" stop-color="#130a28"/>
      <stop offset="100%" stop-color="#06030f"/>
    </radialGradient>
    <radialGradient id="il1" cx="25%" cy="20%" r="55%">
      <stop offset="0%" stop-color="#7c6af7" stop-opacity="0.35"/>
      <stop offset="100%" stop-color="#7c6af7" stop-opacity="0"/>
    </radialGradient>
  </defs>
  <rect width="1500" height="500" fill="#0a0a0f"/>
  <line x1="0" y1="125" x2="1500" y2="125" stroke="#1e1e2e" stroke-width="0.5"/>
  <line x1="0" y1="250" x2="1500" y2="250" stroke="#1e1e2e" stroke-width="0.5"/>
  <line x1="0" y1="375" x2="1500" y2="375" stroke="#1e1e2e" stroke-width="0.5"/>
  <line x1="375" y1="0" x2="375" y2="500" stroke="#1e1e2e" stroke-width="0.5"/>
  <line x1="750" y1="0" x2="750" y2="500" stroke="#1e1e2e" stroke-width="0.5"/>
  <line x1="1125" y1="0" x2="1125" y2="500" stroke="#1e1e2e" stroke-width="0.5"/>
  <!-- Large orb right — cx=1220 cy=210 r=175, base colada -->
  <ellipse cx="1220" cy="418" rx="160" ry="12" fill="#2a1560" opacity="0.5"/>
  <rect x="1162" y="385" width="116" height="30" rx="15" fill="#130a28"/>
  <circle cx="1220" cy="210" r="175" fill="url(#bb1)"/>
  <circle cx="1220" cy="210" r="175" fill="url(#blight1)"/>
  <circle cx="1220" cy="210" r="175" fill="url(#brim1)"/>
  <!-- Star 1 large centre-left -->
  <path d="M1188,155 L1200,193 L1238,205 L1200,217 L1188,255 L1176,217 L1138,205 L1176,193 Z" fill="#d97706"/>
  <path d="M1188,155 L1200,193 L1238,205 L1200,217 L1188,255 L1176,217 L1138,205 L1176,193 Z" fill="#fbbf24" opacity="0.55"/>
  <!-- Star 2 medium top-right -->
  <path d="M1289,100 L1297,124 L1321,132 L1297,140 L1289,164 L1281,140 L1257,132 L1281,124 Z" fill="#d97706"/>
  <path d="M1289,100 L1297,124 L1321,132 L1297,140 L1289,164 L1281,140 L1257,132 L1281,124 Z" fill="#fbbf24" opacity="0.55"/>
  <!-- Star 3 small bottom-right -->
  <path d="M1289,268 L1295,284 L1311,290 L1295,296 L1289,312 L1283,296 L1267,290 L1283,284 Z" fill="#d97706"/>
  <path d="M1289,268 L1295,284 L1311,290 L1295,296 L1289,312 L1283,296 L1267,290 L1283,284 Z" fill="#fbbf24" opacity="0.55"/>
  <!-- Small icon left — base colada -->
  <rect x="100" y="158" width="112" height="112" rx="25" fill="#111118" stroke="#1e1e2e" stroke-width="1"/>
  <ellipse cx="156" cy="243" rx="18" ry="3" fill="#2a1560" opacity="0.5"/>
  <rect x="143" y="230" width="26" height="13" rx="6.5" fill="#130a28"/>
  <circle cx="156" cy="196" r="34" fill="url(#ib1)"/>
  <circle cx="156" cy="196" r="34" fill="url(#il1)"/>
  <path d="M150,184 L152.2,191.2 L159.5,193.5 L152.2,195.8 L150,203 L147.8,195.8 L140.5,193.5 L147.8,191.2 Z" fill="#d97706"/>
  <path d="M150,184 L152.2,191.2 L159.5,193.5 L152.2,195.8 L150,203 L147.8,195.8 L140.5,193.5 L147.8,191.2 Z" fill="#fbbf24" opacity="0.55"/>
  <path d="M169,174 L170.5,178.8 L175.3,180.3 L170.5,181.8 L169,186.6 L167.5,181.8 L162.7,180.3 L167.5,178.8 Z" fill="#d97706"/>
  <path d="M169,174 L170.5,178.8 L175.3,180.3 L170.5,181.8 L169,186.6 L167.5,181.8 L162.7,180.3 L167.5,178.8 Z" fill="#fbbf24" opacity="0.55"/>
  <path d="M169,203 L170,206 L173,207 L170,208 L169,211 L168,208 L165,207 L168,206 Z" fill="#d97706"/>
  <path d="M169,203 L170,206 L173,207 L170,208 L169,211 L168,208 L165,207 L168,206 Z" fill="#fbbf24" opacity="0.55"/>
  <!-- Wordmark -->
  <text x="238" y="237" font-family="'Syne','Arial Black',sans-serif" font-weight="800" font-size="92" letter-spacing="-2" fill="#e8e8f0">pred</text>
  <text x="530" y="237" font-family="'Syne','Arial Black',sans-serif" font-weight="800" font-size="92" letter-spacing="-2" fill="#7c6af7">lab</text>
  <text x="240" y="290" font-family="'DM Mono','Courier New',monospace" font-size="18" letter-spacing="3" fill="#555570">TRACK · COMPARE · RANK</text>
  <text x="240" y="334" font-family="'DM Mono','Courier New',monospace" font-size="16" letter-spacing="1" fill="#3d3580">predlab.app</text>
</svg>
