<svg width="400" height="400" viewBox="0 0 100 100" fill="none" xmlns="http://www.w3.org/2000/svg">
  <defs>
    <radialGradient id="orb" cx="35%" cy="25%" r="70%">
      <stop offset="0%" stop-color="#b8acff"/>
      <stop offset="30%" stop-color="#7c6af7"/>
      <stop offset="65%" stop-color="#4c35c7"/>
      <stop offset="100%" stop-color="#2a1a8a"/>
    </radialGradient>
    <radialGradient id="shine" cx="28%" cy="18%" r="35%">
      <stop offset="0%" stop-color="#ddd6fe" stop-opacity="0.5"/>
      <stop offset="100%" stop-color="#ddd6fe" stop-opacity="0"/>
    </radialGradient>
    <linearGradient id="base" x1="0.5" y1="0" x2="0.5" y2="1">
      <stop offset="0%" stop-color="#e8e8f0"/>
      <stop offset="100%" stop-color="#c4b5fd"/>
    </linearGradient>
    <linearGradient id="s1" x1="0" y1="0" x2="1" y2="1"><stop offset="0%" stop-color="#fbbf24"/><stop offset="100%" stop-color="#f97316"/></linearGradient>
    <linearGradient id="s2" x1="0" y1="0" x2="1" y2="1"><stop offset="0%" stop-color="#fcd34d"/><stop offset="100%" stop-color="#f59e0b"/></linearGradient>
    <linearGradient id="s3" x1="0" y1="0" x2="1" y2="1"><stop offset="0%" stop-color="#fde68a"/><stop offset="100%" stop-color="#fbbf24"/></linearGradient>
    <clipPath id="clip"><rect x="0" y="0" width="100" height="72"/></clipPath>
  </defs>
  <rect width="100" height="100" fill="#0a0a0f"/>
  <path d="M28,72 L24,88 Q24,91 28,91 L72,91 Q76,91 76,88 L72,72 Z" fill="url(#base)"/>
  <g clip-path="url(#clip)">
    <circle cx="50" cy="46" r="34" fill="url(#orb)"/>
    <circle cx="50" cy="46" r="34" fill="url(#shine)"/>
  </g>
  <path d="M40,38 L42.8,46.5 L51.5,49.3 L42.8,52.1 L40,60.5 L37.2,52.1 L28.5,49.3 L37.2,46.5 Z" fill="url(#s1)"/>
  <path d="M55,24 L56.5,28.8 L61.3,30.3 L56.5,31.8 L55,36.6 L53.5,31.8 L48.7,30.3 L53.5,28.8 Z" fill="url(#s2)"/>
  <path d="M65,36 L66,39 L69,40 L66,41 L65,44 L64,41 L61,40 L64,39 Z" fill="url(#s3)"/>
</svg>
