<svg width="1200" height="630" viewBox="0 0 1200 630" fill="none" xmlns="http://www.w3.org/2000/svg">
  <defs>
    <radialGradient id="orb" cx="35%" cy="25%" r="70%">
      <stop offset="0%" stop-color="#b8acff"/>
      <stop offset="30%" stop-color="#7c6af7"/>
      <stop offset="65%" stop-color="#4c35c7"/>
      <stop offset="100%" stop-color="#2a1a8a"/>
    </radialGradient>
    <radialGradient id="shine" cx="28%" cy="18%" r="35%">
      <stop offset="0%" stop-color="#ddd6fe" stop-opacity="0.5"/>
      <stop offset="100%" stop-color="#ddd6fe" stop-opacity="0"/>
    </radialGradient>
    <linearGradient id="base" x1="0.5" y1="0" x2="0.5" y2="1">
      <stop offset="0%" stop-color="#e8e8f0"/>
      <stop offset="100%" stop-color="#c4b5fd"/>
    </linearGradient>
    <linearGradient id="s1" x1="0" y1="0" x2="1" y2="1"><stop offset="0%" stop-color="#fbbf24"/><stop offset="100%" stop-color="#f97316"/></linearGradient>
    <linearGradient id="s2" x1="0" y1="0" x2="1" y2="1"><stop offset="0%" stop-color="#fcd34d"/><stop offset="100%" stop-color="#f59e0b"/></linearGradient>
    <linearGradient id="s3" x1="0" y1="0" x2="1" y2="1"><stop offset="0%" stop-color="#fde68a"/><stop offset="100%" stop-color="#fbbf24"/></linearGradient>
    <!-- Bola grande: scale 4.5, translate(695,80), clip height=72*4.5=324 -->
    <clipPath id="clip_lg"><rect x="695" y="80" width="450" height="324"/></clipPath>
    <!-- Ícone pequeno: scale 1.3, translate(60,55), clip height=72*1.3=93.6 -->
    <clipPath id="clip_sm"><rect x="60" y="55" width="130" height="94"/></clipPath>
  </defs>

  <!-- Background -->
  <rect width="1200" height="630" fill="#0a0a0f"/>
  <!-- Grid -->
  <line x1="0" y1="157" x2="1200" y2="157" stroke="#1e1e2e" stroke-width="0.5"/>
  <line x1="0" y1="315" x2="1200" y2="315" stroke="#1e1e2e" stroke-width="0.5"/>
  <line x1="0" y1="472" x2="1200" y2="472" stroke="#1e1e2e" stroke-width="0.5"/>
  <line x1="300" y1="0" x2="300" y2="630" stroke="#1e1e2e" stroke-width="0.5"/>
  <line x1="600" y1="0" x2="600" y2="630" stroke="#1e1e2e" stroke-width="0.5"/>
  <line x1="900" y1="0" x2="900" y2="630" stroke="#1e1e2e" stroke-width="0.5"/>

  <!-- BOLA GRANDE direita — scale(4.5) translate(695,80) -->
  <g transform="translate(695,80) scale(4.5)">
    <path d="M28,72 L24,88 Q24,91 28,91 L72,91 Q76,91 76,88 L72,72 Z" fill="url(#base)"/>
  </g>
  <g clip-path="url(#clip_lg)">
    <g transform="translate(695,80) scale(4.5)">
      <circle cx="50" cy="46" r="34" fill="url(#orb)"/>
      <circle cx="50" cy="46" r="34" fill="url(#shine)"/>
    </g>
  </g>
  <g transform="translate(695,80) scale(4.5)">
    <path d="M40,38 L42.8,46.5 L51.5,49.3 L42.8,52.1 L40,60.5 L37.2,52.1 L28.5,49.3 L37.2,46.5 Z" fill="url(#s1)"/>
    <path d="M55,24 L56.5,28.8 L61.3,30.3 L56.5,31.8 L55,36.6 L53.5,31.8 L48.7,30.3 L53.5,28.8 Z" fill="url(#s2)"/>
    <path d="M65,36 L66,39 L69,40 L66,41 L65,44 L64,41 L61,40 L64,39 Z" fill="url(#s3)"/>
  </g>

  <!-- ÍCONE PEQUENO topo esquerda — scale(1.3) translate(60,55) -->
  <g transform="translate(60,55) scale(1.3)">
    <path d="M28,72 L24,88 Q24,91 28,91 L72,91 Q76,91 76,88 L72,72 Z" fill="url(#base)"/>
  </g>
  <g clip-path="url(#clip_sm)">
    <g transform="translate(60,55) scale(1.3)">
      <circle cx="50" cy="46" r="34" fill="url(#orb)"/>
      <circle cx="50" cy="46" r="34" fill="url(#shine)"/>
    </g>
  </g>
  <g transform="translate(60,55) scale(1.3)">
    <path d="M40,38 L42.8,46.5 L51.5,49.3 L42.8,52.1 L40,60.5 L37.2,52.1 L28.5,49.3 L37.2,46.5 Z" fill="url(#s1)"/>
    <path d="M55,24 L56.5,28.8 L61.3,30.3 L56.5,31.8 L55,36.6 L53.5,31.8 L48.7,30.3 L53.5,28.8 Z" fill="url(#s2)"/>
    <path d="M65,36 L66,39 L69,40 L66,41 L65,44 L64,41 L61,40 L64,39 Z" fill="url(#s3)"/>
  </g>

  <!-- Wordmark -->
  <text x="60" y="350" font-family="'Syne','Arial Black',sans-serif" font-weight="800" font-size="110" letter-spacing="-2">
    <tspan fill="#e8e8f0">pred</tspan><tspan fill="#7c6af7">lab</tspan>
  </text>
  <text x="62" y="415" font-family="'DM Mono','Courier New',monospace" font-size="20" letter-spacing="3" fill="#555570">TRACK · COMPARE · RANK</text>
  <text x="62" y="455" font-family="'DM Mono','Courier New',monospace" font-size="16" letter-spacing="1" fill="#3d3580">predlab.app</text>
</svg>
