<svg width="200" height="48" viewBox="0 0 200 48" fill="none" xmlns="http://www.w3.org/2000/svg">
  <defs>
    <radialGradient id="b" cx="42%" cy="38%" r="70%">
      <stop offset="0%" stop-color="#a78bfa"/>
      <stop offset="40%" stop-color="#7c6af7"/>
      <stop offset="100%" stop-color="#4c35c7"/>
    </radialGradient>
    <radialGradient id="light" cx="25%" cy="20%" r="55%">
      <stop offset="0%" stop-color="#c4b5fd" stop-opacity="0.4"/>
      <stop offset="100%" stop-color="#7c6af7" stop-opacity="0"/>
    </radialGradient>
    <radialGradient id="rim" cx="75%" cy="78%" r="45%">
      <stop offset="0%" stop-color="#3d2070" stop-opacity="0.5"/>
      <stop offset="100%" stop-color="#3d2070" stop-opacity="0"/>
    </radialGradient>
  </defs>

  <!-- SEM fundo próprio — bola directamente sobre navbar -->

  <!-- Base branca -->
  <ellipse cx="24" cy="41" rx="9.5" ry="2.2" fill="white" opacity="0.25"/>
  <rect x="17.5" y="37.5" width="13" height="4" rx="2" fill="white" opacity="0.35"/>

  <!-- Orb roxa -->
  <circle cx="24" cy="21" r="15.8" fill="url(#b)"/>
  <circle cx="24" cy="21" r="15.8" fill="url(#light)"/>
  <circle cx="24" cy="21" r="15.8" fill="url(#rim)"/>

  <!-- Star 1 large -->
  <path d="M21.1,17.3 L22.2,20.7 L25.7,21.8 L22.2,22.9 L21.1,26.4 L20,22.9 L16.6,21.8 L20,20.7 Z" fill="#d97706"/>
  <path d="M21.1,17.3 L22.2,20.7 L25.7,21.8 L22.2,22.9 L21.1,26.4 L20,22.9 L16.6,21.8 L20,20.7 Z" fill="#fbbf24" opacity="0.55"/>
  <!-- Star 2 medium -->
  <path d="M30.2,12.5 L30.9,14.8 L33.3,15.5 L30.9,16.2 L30.2,18.5 L29.5,16.2 L27.2,15.5 L29.5,14.8 Z" fill="#d97706"/>
  <path d="M30.2,12.5 L30.9,14.8 L33.3,15.5 L30.9,16.2 L30.2,18.5 L29.5,16.2 L27.2,15.5 L29.5,14.8 Z" fill="#fbbf24" opacity="0.55"/>
  <!-- Star 3 small -->
  <path d="M30.2,26.4 L30.7,27.8 L32.2,28.3 L30.7,28.8 L30.2,30.2 L29.7,28.8 L28.3,28.3 L29.7,27.8 Z" fill="#d97706"/>
  <path d="M30.2,26.4 L30.7,27.8 L32.2,28.3 L30.7,28.8 L30.2,30.2 L29.7,28.8 L28.3,28.3 L29.7,27.8 Z" fill="#fbbf24" opacity="0.55"/>

  <!-- Wordmark -->
  <text x="52" y="32"
    font-family="'Syne','Arial Black',sans-serif"
    font-weight="800" font-size="22" letter-spacing="-0.5"
    fill="#e8e8f0">pred</text>
  <text x="102" y="32"
    font-family="'Syne','Arial Black',sans-serif"
    font-weight="800" font-size="22" letter-spacing="-0.5"
    fill="#7c6af7">lab</text>
</svg>
