<svg width="200" height="48" viewBox="0 0 200 48" fill="none" xmlns="http://www.w3.org/2000/svg">
  <defs>
    <linearGradient id="grad_curve_h" x1="0" y1="0" x2="48" y2="48" gradientUnits="userSpaceOnUse">
      <stop offset="0%" stop-color="#a78bfa"/>
      <stop offset="100%" stop-color="#7c6af7"/>
    </linearGradient>
    <linearGradient id="grad_fill_h" x1="0" y1="0" x2="48" y2="48" gradientUnits="userSpaceOnUse">
      <stop offset="0%" stop-color="#7c6af7" stop-opacity="0.2"/>
      <stop offset="100%" stop-color="#a78bfa" stop-opacity="0.05"/>
    </linearGradient>
  </defs>

  <!-- Icon background -->
  <rect width="48" height="48" rx="11" fill="#0f0f1a"/>

  <!-- Grid lines -->
  <line x1="7" y1="35" x2="41" y2="35" stroke="#2a2a3e" stroke-width="0.75"/>
  <line x1="7" y1="27" x2="41" y2="27" stroke="#1e1e2e" stroke-width="0.5"/>

  <!-- Curve fill -->
  <path d="M7 35 Q12 35 17 33 Q21 31 24 22 Q27 13 31 11 Q34 10 37 12 Q39 14 41 35 Z"
        fill="url(#grad_fill_h)"/>

  <!-- Main curve -->
  <path d="M7 35 Q12 35 17 33 Q21 31 24 22 Q27 13 31 11 Q34 10 37 12 Q39 14 41 35"
        stroke="url(#grad_curve_h)" stroke-width="2" fill="none"
        stroke-linecap="round"/>

  <!-- Peak glow -->
  <circle cx="31" cy="11" r="4" fill="#a78bfa" opacity="0.2"/>

  <!-- Peak dot -->
  <circle cx="31" cy="11" r="2.5" fill="#a78bfa"/>

  <!-- X axis -->
  <line x1="7" y1="35" x2="41" y2="35" stroke="#3d3580" stroke-width="1"/>

  <!-- Wordmark: pred -->
  <text x="58" y="33"
        font-family="'Syne', 'Arial Black', sans-serif"
        font-weight="800"
        font-size="26"
        letter-spacing="-0.5"
        fill="#e8e8f0">pred</text>

  <!-- Wordmark: lab -->
  <text x="117" y="33"
        font-family="'Syne', 'Arial Black', sans-serif"
        font-weight="800"
        font-size="26"
        letter-spacing="-0.5"
        fill="#7c6af7">lab</text>
</svg>
