<svg width="32" height="32" viewBox="0 0 32 32" fill="none" xmlns="http://www.w3.org/2000/svg">
  <defs>
    <linearGradient id="g" x1="0" y1="0" x2="32" y2="32" gradientUnits="userSpaceOnUse">
      <stop offset="0%" stop-color="#a78bfa"/>
      <stop offset="100%" stop-color="#7c6af7"/>
    </linearGradient>
  </defs>
  <rect width="32" height="32" rx="7" fill="#0f0f1a"/>
  <path d="M4 24 Q8 24 11 22 Q14 20 16 14 Q18 8 21 7 Q23 6 25 7.5 Q26.5 9 28 24 Z"
        fill="#7c6af715"/>
  <path d="M4 24 Q8 24 11 22 Q14 20 16 14 Q18 8 21 7 Q23 6 25 7.5 Q26.5 9 28 24"
        stroke="url(#g)" stroke-width="2" fill="none" stroke-linecap="round"/>
  <circle cx="21" cy="7" r="2.5" fill="#a78bfa"/>
  <line x1="4" y1="24" x2="28" y2="24" stroke="#3d3580" stroke-width="1.5"/>
</svg>
